<svg width="29" height="30" viewBox="0 0 29 30" fill="none" xmlns="http://www.w3.org/2000/svg">
<path d="M18.125 22.1625H17.475V22.8125V23.125C17.475 23.9352 17.2442 24.3597 16.9825 24.593C16.7068 24.8388 16.2829 24.975 15.7084 24.975H8.45835C7.88384 24.975 7.45987 24.8388 7.18421 24.593C6.92254 24.3597 6.69169 23.9352 6.69169 23.125V22.8125V22.1625H6.04169H2.41669C2.30085 22.1625 2.16044 22.0495 2.16044 21.875C2.16044 21.7005 2.30085 21.5875 2.41669 21.5875H6.04169H6.69169V20.9375V20.625C6.69169 19.8148 6.92254 19.3903 7.18421 19.157C7.45987 18.9112 7.88384 18.775 8.45835 18.775H15.7084C16.2829 18.775 16.7068 18.9112 16.9825 19.157C17.2442 19.3903 17.475 19.8148 17.475 20.625V20.9375V21.5875H18.125H26.5834C26.6992 21.5875 26.8396 21.7005 26.8396 21.875C26.8396 22.0495 26.6992 22.1625 26.5834 22.1625H18.125Z" stroke="#292D32" stroke-width="1.3"/>
<path d="M22.9584 8.4125H22.3084V9.0625V9.375C22.3084 10.1852 22.0775 10.6097 21.8158 10.843C21.5402 11.0888 21.1162 11.225 20.5417 11.225H13.2917C12.7172 11.225 12.2932 11.0888 12.0175 10.843C11.7559 10.6097 11.525 10.1852 11.525 9.375V9.0625V8.4125H10.875H2.41669C2.30085 8.4125 2.16044 8.29946 2.16044 8.125C2.16044 7.95054 2.30085 7.8375 2.41669 7.8375H10.875H11.525V7.1875V6.875C11.525 6.06481 11.7559 5.64034 12.0175 5.40699C12.2932 5.16115 12.7172 5.025 13.2917 5.025H20.5417C21.1162 5.025 21.5402 5.16115 21.8158 5.40699C22.0775 5.64034 22.3084 6.06481 22.3084 6.875V7.1875V7.8375H22.9584H26.5834C26.6992 7.8375 26.8396 7.95054 26.8396 8.125C26.8396 8.29946 26.6992 8.4125 26.5834 8.4125H22.9584Z" stroke="#292D32" stroke-width="1.3"/>
</svg>
