<svg width="26" height="26" viewBox="0 0 26 26" fill="none" xmlns="http://www.w3.org/2000/svg">
<path d="M2.16641 3.25H8.66641C9.81568 3.25 10.9179 3.70655 11.7305 4.5192C12.5432 5.33186 12.9997 6.43406 12.9997 7.58333V22.75C12.9997 21.888 12.6573 21.0614 12.0478 20.4519C11.4383 19.8424 10.6117 19.5 9.74975 19.5H2.16641V3.25Z" stroke="#292D32" stroke-width="1.6" stroke-linecap="round" stroke-linejoin="round"/>
<path d="M23.8333 3.25H17.3333C16.184 3.25 15.0818 3.70655 14.2692 4.5192C13.4565 5.33186 13 6.43406 13 7.58333V22.75C13 21.888 13.3424 21.0614 13.9519 20.4519C14.5614 19.8424 15.388 19.5 16.25 19.5H23.8333V3.25Z" stroke="#292D32" stroke-width="1.6" stroke-linecap="round" stroke-linejoin="round"/>
</svg>
