<svg width="29" height="29" viewBox="0 0 29 29" fill="none" xmlns="http://www.w3.org/2000/svg">
<path d="M9.66666 6.94794C9.17124 6.94794 8.76041 6.5371 8.76041 6.04169V2.41669C8.76041 1.92127 9.17124 1.51044 9.66666 1.51044C10.1621 1.51044 10.5729 1.92127 10.5729 2.41669V6.04169C10.5729 6.5371 10.1621 6.94794 9.66666 6.94794Z" fill="#292D32"/>
<path d="M19.3333 6.94794C18.8379 6.94794 18.4271 6.5371 18.4271 6.04169V2.41669C18.4271 1.92127 18.8379 1.51044 19.3333 1.51044C19.8287 1.51044 20.2396 1.92127 20.2396 2.41669V6.04169C20.2396 6.5371 19.8287 6.94794 19.3333 6.94794Z" fill="#292D32"/>
<path d="M24.7708 11.89H4.22917C3.73376 11.89 3.32292 11.4791 3.32292 10.9837C3.32292 10.4883 3.73376 10.0775 4.22917 10.0775H24.7708C25.2663 10.0775 25.6771 10.4883 25.6771 10.9837C25.6771 11.4791 25.2663 11.89 24.7708 11.89Z" fill="#292D32"/>
<path d="M19.3333 27.4896H9.66667C5.25625 27.4896 2.71875 24.9521 2.71875 20.5417V10.2709C2.71875 5.86044 5.25625 3.32294 9.66667 3.32294H19.3333C23.7438 3.32294 26.2813 5.86044 26.2813 10.2709V20.5417C26.2813 24.9521 23.7438 27.4896 19.3333 27.4896ZM9.66667 5.13544C6.21083 5.13544 4.53125 6.81502 4.53125 10.2709V20.5417C4.53125 23.9975 6.21083 25.6771 9.66667 25.6771H19.3333C22.7892 25.6771 24.4688 23.9975 24.4688 20.5417V10.2709C24.4688 6.81502 22.7892 5.13544 19.3333 5.13544H9.66667Z" fill="#292D32"/>
<path d="M10.2708 17.5208C10.1138 17.5208 9.95666 17.4846 9.81166 17.4242C9.66666 17.3637 9.53376 17.2791 9.41293 17.1704C9.30418 17.0495 9.21957 16.9166 9.15915 16.7716C9.09873 16.6266 9.0625 16.4696 9.0625 16.3125C9.0625 15.9983 9.19543 15.6842 9.41293 15.4546C9.53376 15.3458 9.66666 15.2612 9.81166 15.2008C10.0292 15.1041 10.2708 15.08 10.5125 15.1283C10.585 15.1404 10.6575 15.1645 10.73 15.2008C10.8025 15.225 10.875 15.2612 10.9475 15.3096C11.0079 15.3579 11.0683 15.4062 11.1287 15.4546C11.1771 15.515 11.2375 15.5754 11.2737 15.6358C11.3221 15.7083 11.3584 15.7808 11.3825 15.8533C11.4188 15.9258 11.4429 15.9983 11.455 16.0708C11.4671 16.1554 11.4792 16.2279 11.4792 16.3125C11.4792 16.6266 11.3462 16.9408 11.1287 17.1704C10.8992 17.3879 10.585 17.5208 10.2708 17.5208Z" fill="#292D32"/>
<path d="M14.5 17.5209C14.1858 17.5209 13.8717 17.3879 13.6421 17.1704C13.5938 17.11 13.5454 17.0496 13.4971 16.9892C13.4488 16.9167 13.4125 16.8442 13.3883 16.7717C13.3521 16.6992 13.3279 16.6267 13.3158 16.5542C13.3037 16.4696 13.2917 16.3971 13.2917 16.3125C13.2917 16.1554 13.3279 15.9984 13.3883 15.8534C13.4487 15.7084 13.5333 15.5755 13.6421 15.4546C13.9804 15.1163 14.5242 15.0075 14.9592 15.2008C15.1163 15.2613 15.2371 15.3459 15.3579 15.4546C15.5754 15.6842 15.7083 15.9984 15.7083 16.3125C15.7083 16.3971 15.6963 16.4696 15.6842 16.5542C15.6721 16.6267 15.6479 16.6992 15.6117 16.7717C15.5875 16.8442 15.5512 16.9167 15.5029 16.9892C15.4546 17.0496 15.4062 17.11 15.3579 17.1704C15.2371 17.2792 15.1163 17.3638 14.9592 17.4242C14.8142 17.4846 14.6571 17.5209 14.5 17.5209Z" fill="#292D32"/>
<path d="M10.2708 21.75C10.1138 21.75 9.95666 21.7138 9.81166 21.6533C9.66666 21.5929 9.53376 21.5083 9.41293 21.3996C9.30418 21.2787 9.21957 21.1579 9.15915 21.0008C9.09873 20.8558 9.0625 20.6987 9.0625 20.5417C9.0625 20.2275 9.19543 19.9133 9.41293 19.6837C9.53376 19.575 9.66666 19.4904 9.81166 19.43C10.2587 19.2366 10.7904 19.3454 11.1287 19.6837C11.1771 19.7442 11.2375 19.8046 11.2737 19.865C11.3221 19.9375 11.3584 20.01 11.3825 20.0825C11.4188 20.155 11.4429 20.2275 11.455 20.3121C11.4671 20.3846 11.4792 20.4692 11.4792 20.5417C11.4792 20.8558 11.3462 21.17 11.1287 21.3996C10.8992 21.6171 10.585 21.75 10.2708 21.75Z" fill="#292D32"/>
</svg>
