<svg width="29" height="30" viewBox="0 0 29 30" fill="none" xmlns="http://www.w3.org/2000/svg">
<path d="M21.75 2.5H7.25C5.24417 2.5 3.625 4.1625 3.625 6.2125V19.85C3.625 21.9 5.24417 23.5625 7.25 23.5625H8.16833C9.135 23.5625 10.0533 23.95 10.73 24.65L12.7963 26.7625C13.7388 27.725 15.2733 27.725 16.2158 26.7625L18.2821 24.65C18.9588 23.95 19.8892 23.5625 20.8438 23.5625H21.75C23.7558 23.5625 25.375 21.9 25.375 19.85V6.2125C25.375 4.1625 23.7558 2.5 21.75 2.5ZM14.5 7.1875C16.0588 7.1875 17.3154 8.4875 17.3154 10.1C17.3154 11.7125 16.0588 13.0125 14.5 13.0125C12.9413 13.0125 11.6846 11.7 11.6846 10.1C11.6846 8.4875 12.9413 7.1875 14.5 7.1875ZM17.7383 18.825H11.2617C10.2829 18.825 9.715 17.7 10.2588 16.8625C11.0804 15.6 12.6754 14.75 14.5 14.75C16.3246 14.75 17.9196 15.6 18.7413 16.8625C19.285 17.7 18.705 18.825 17.7383 18.825Z" fill="#292D32"/>
</svg>
