<svg width="30" height="29" viewBox="0 0 30 29" fill="none" xmlns="http://www.w3.org/2000/svg">
<path d="M13.75 2.41669H11.25C5 2.41669 2.5 4.83335 2.5 10.875V18.125C2.5 24.1667 5 26.5834 11.25 26.5834H18.75C25 26.5834 27.5 24.1667 27.5 18.125V15.7084" stroke="#292D32" stroke-width="1.6" stroke-linecap="round" stroke-linejoin="round"/>
<path d="M20.05 3.64917L10.2 13.1708C9.825 13.5333 9.45 14.2462 9.375 14.7658L8.8375 18.4029C8.6375 19.72 9.6 20.6383 10.9625 20.4571L14.725 19.9375C15.25 19.865 15.9875 19.5025 16.375 19.14L26.225 9.61833C27.925 7.975 28.725 6.06583 26.225 3.64917C23.725 1.2325 21.75 2.00583 20.05 3.64917Z" stroke="#292D32" stroke-width="1.6" stroke-miterlimit="10" stroke-linecap="round" stroke-linejoin="round"/>
<path d="M18.6375 5.01459C19.475 7.9025 21.8125 10.1621 24.8125 10.9838" stroke="#292D32" stroke-width="1.6" stroke-miterlimit="10" stroke-linecap="round" stroke-linejoin="round"/>
</svg>
