<svg width="30" height="29" viewBox="0 0 30 29" fill="none" xmlns="http://www.w3.org/2000/svg">
<path d="M25 9.96877V21.75C25 25.375 22.7625 26.5834 20 26.5834H10C7.2375 26.5834 5 25.375 5 21.75V9.96877C5 6.04169 7.2375 5.13544 10 5.13544C10 5.8846 10.3125 6.56127 10.825 7.05668C11.3375 7.5521 12.0375 7.85419 12.8125 7.85419H17.1875C18.7375 7.85419 20 6.63377 20 5.13544C22.7625 5.13544 25 6.04169 25 9.96877Z" stroke="#292D32" stroke-width="1.6" stroke-linecap="round" stroke-linejoin="round"/>
<path d="M20 5.13544C20 6.63377 18.7375 7.85419 17.1875 7.85419H12.8125C12.0375 7.85419 11.3375 7.5521 10.825 7.05668C10.3125 6.56127 10 5.8846 10 5.13544C10 3.6371 11.2625 2.41669 12.8125 2.41669H17.1875C17.9625 2.41669 18.6625 2.71877 19.175 3.21419C19.6875 3.70961 20 4.38627 20 5.13544Z" stroke="#292D32" stroke-width="1.6" stroke-linecap="round" stroke-linejoin="round"/>
<path d="M10 15.7084H15" stroke="#292D32" stroke-width="1.6" stroke-linecap="round" stroke-linejoin="round"/>
<path d="M10 20.5417H20" stroke="#292D32" stroke-width="1.6" stroke-linecap="round" stroke-linejoin="round"/>
</svg>
