<svg xmlns="http://www.w3.org/2000/svg" width="289" height="223" viewBox="0 0 289 223" fill="none">
  <path opacity="0.2" d="M289 178.948L274.646 170.462L288.603 162.207L288.73 162.134V145.168L288.985 145.017L288.73 144.865V127.9L274.646 119.571L288.608 111.31L288.735 111.237V93.6712L274.034 102.381L273.907 102.454V119.122V136.39L260.526 144.28C260.401 144.151 260.244 144.059 260.072 144.014V110.94L245.733 102.459V85.494L232.102 77.4421C232.129 77.3541 232.142 77.2626 232.143 77.1705C232.143 77.0802 232.129 76.9904 232.102 76.9042L245.601 68.9045L245.728 68.8314V52.1741L259.542 60.3461V94.5746L273.428 86.3608C273.534 86.4871 273.668 86.5855 273.819 86.6478C273.97 86.7101 274.133 86.7345 274.295 86.7189C274.457 86.7033 274.613 86.6483 274.75 86.5583C274.887 86.4683 275.001 86.3461 275.082 86.2018C275.164 86.0574 275.21 85.8952 275.218 85.7287C275.226 85.5622 275.194 85.3962 275.127 85.2446C275.059 85.093 274.957 84.9603 274.829 84.8574C274.701 84.7545 274.551 84.6845 274.391 84.6533V51.8816L288.623 43.4642L288.75 43.3859V25.8199L274.396 34.3157L259.802 42.9316L245.213 34.3V51.5683L231.012 59.9701L230.884 60.0432V76.1732C230.684 76.2442 230.511 76.3774 230.388 76.5543C230.265 76.7312 230.199 76.9429 230.199 77.1601C230.199 77.3772 230.265 77.589 230.388 77.7659C230.511 77.9428 230.684 78.076 230.884 78.147V94.277L245.224 102.757V119.42L231.394 127.602V110.934L217.065 102.454V102.151L216.81 102.303L216.556 102.151V102.454L202.339 110.861L202.211 110.934V128.505L216.092 120.292C216.282 120.485 216.538 120.593 216.805 120.595C216.937 120.595 217.068 120.568 217.189 120.516C217.311 120.464 217.421 120.388 217.514 120.292L230.884 128.203V162.436L245.478 153.8L259.563 162.154L273.627 170.462L259.817 178.645L259.563 178.493V178.796L259.308 178.948L259.563 179.094V196.059L273.897 204.545V220.372C273.71 220.418 273.539 220.518 273.405 220.659C273.271 220.801 273.179 220.978 273.139 221.171C273.1 221.364 273.114 221.565 273.181 221.75C273.248 221.934 273.364 222.096 273.517 222.216C273.67 222.336 273.853 222.409 274.044 222.427C274.236 222.445 274.429 222.406 274.6 222.317C274.771 222.227 274.915 222.089 275.013 221.92C275.111 221.75 275.16 221.556 275.155 221.359C275.152 221.268 275.139 221.179 275.114 221.092L288.618 213.103L288.745 213.025V195.453L274.406 203.934V187.579L289 178.948ZM274.416 102.757L288.246 94.5746V110.934L274.416 119.117V102.757ZM288.236 161.831L274.406 170.013V153.648L288.236 145.471V161.831ZM288.236 144.562L274.406 136.385V120.02L288.236 128.203V144.562ZM274.136 136.834L287.966 145.017L281.683 148.735L274.136 153.199L260.76 145.283C260.812 145.113 260.812 144.931 260.76 144.761L274.136 136.834ZM259.563 128.203V144.03C259.388 144.073 259.23 144.165 259.104 144.296L252.648 140.474L245.733 136.385V120.025L252.648 124.114L259.563 128.203ZM260.072 60.32L273.886 52.1688V68.5285L260.057 76.7058L260.072 60.32ZM260.072 93.6451V77.3115L273.902 69.1291V84.6533C273.691 84.7139 273.504 84.8427 273.37 85.0205C273.236 85.1982 273.162 85.4156 273.158 85.6402C273.159 85.7301 273.171 85.8196 273.193 85.9065L260.072 93.6451ZM274.416 34.9058L288.246 26.7233V43.083L274.416 51.2655V34.9058ZM273.907 51.5631L260.057 59.7456V43.3859L273.886 35.2034L273.907 51.5631ZM245.723 35.2034L259.547 43.3859V59.7456L245.733 51.5683V51.2602L245.723 35.2034ZM245.213 52.1688V68.5285L231.842 76.4395C231.717 76.3085 231.558 76.2163 231.384 76.1732V60.3461L245.213 52.1688ZM231.384 93.9741V78.147C231.557 78.1038 231.714 78.0115 231.837 77.8807L245.224 85.7969V102.157L231.384 93.9741ZM259.552 111.242V127.602L252.638 123.513L245.723 119.42V103.06L259.552 111.242ZM202.721 127.597V111.237L216.556 103.055V118.584C216.345 118.645 216.158 118.774 216.024 118.951C215.89 119.129 215.816 119.346 215.812 119.571C215.813 119.661 215.825 119.75 215.847 119.837L202.721 127.597ZM217.065 118.584V103.06L230.89 111.237V127.597L217.773 119.837C217.796 119.75 217.808 119.661 217.809 119.571C217.805 119.346 217.731 119.129 217.597 118.951C217.463 118.774 217.276 118.645 217.065 118.584ZM231.399 128.203L245.229 120.025V136.385L231.399 144.562V128.203ZM231.399 145.168L245.224 136.97V153.335L231.394 161.512L231.399 145.168ZM245.738 153.345V136.97L252.653 141.064L258.859 144.719C258.833 144.805 258.819 144.895 258.819 144.985C258.823 145.211 258.898 145.428 259.033 145.606C259.168 145.784 259.356 145.913 259.568 145.972V161.512L245.738 153.345ZM260.072 146.004C260.243 145.957 260.4 145.865 260.526 145.737L273.897 153.648V170.013L260.072 161.831V146.004ZM273.897 170.911L274.151 170.76L274.406 170.911L287.981 178.942L274.136 187.125L260.327 178.948L273.897 170.911ZM260.072 179.397L273.897 187.579V203.939L260.072 195.762V179.397ZM288.236 196.362V212.722L274.86 220.638C274.735 220.508 274.578 220.416 274.406 220.372V204.545L288.236 196.362ZM203.47 94.1516C203.467 94.0598 203.453 93.9687 203.429 93.8801L216.933 85.8961L217.065 85.7969V51.8816L230.349 44.0229C230.437 44.1713 230.56 44.2949 230.706 44.3824C230.853 44.47 231.018 44.5188 231.187 44.5244C231.357 44.53 231.525 44.4923 231.676 44.4146C231.828 44.3369 231.958 44.2217 232.055 44.0795C232.152 43.9373 232.214 43.7724 232.233 43.5999C232.252 43.4274 232.229 43.2527 232.166 43.0916C232.103 42.9304 232.002 42.788 231.871 42.6771C231.741 42.5662 231.586 42.4903 231.42 42.4564V25.8199L217.065 34.3V17.6374L202.237 8.85447V26.4204L216.301 34.7439L202.466 42.9316L189.09 35.0154C189.117 34.9293 189.131 34.8395 189.131 34.7491C189.131 34.4721 189.024 34.2065 188.833 34.0106C188.641 33.8148 188.382 33.7047 188.112 33.7047C187.842 33.7047 187.582 33.8148 187.391 34.0106C187.2 34.2065 187.093 34.4721 187.093 34.7491C187.097 34.9744 187.172 35.1922 187.307 35.3701C187.442 35.548 187.63 35.6763 187.842 35.736V51.2602V68.5285L173.793 76.8572L159.964 68.68L173.921 60.4192L174.048 60.3461V43.3806L174.303 43.2292L174.048 43.0778V26.4152L188.26 18.0082L188.387 17.9351V0.369141L173.666 9.07378L173.538 9.15211V25.8147L159.709 17.6322V17.3294L159.454 17.4808L144.865 8.84925V25.2769C144.693 25.3244 144.535 25.416 144.407 25.5432L131.036 17.6322V0.374363L116.681 8.85447L101.981 17.5591L101.853 17.6322V34.2948L88.0237 26.1176V25.8147L87.7689 25.9661L87.5141 25.8147V26.1176L73.435 34.4723L58.8411 25.8147V43.0778L45.0167 51.2602V34.6238L30.168 25.8147L15.8341 17.3294V34.6238L2.45807 42.5086C2.31756 42.3576 2.13611 42.2531 1.93713 42.2087C1.73815 42.1644 1.53075 42.1821 1.3417 42.2596C1.15264 42.3372 0.990594 42.471 0.876448 42.6438C0.762302 42.8166 0.701294 43.0205 0.701294 43.2292C0.701294 43.4379 0.762302 43.6418 0.876448 43.8146C0.990594 43.9874 1.15264 44.1212 1.3417 44.1988C1.53075 44.2763 1.73815 44.294 1.93713 44.2497C2.13611 44.2053 2.31756 44.1009 2.45807 43.9498L15.8341 51.8555V69.1291L30.5655 60.4192L30.6929 60.3461V43.6835L44.5071 51.8555V69.1291L58.3876 60.9152C58.5136 61.0429 58.6699 61.1347 58.8411 61.1816V77.3063L73.6897 86.0945V69.1291L88.0237 77.6092V60.0432L73.9445 51.7145L87.7689 43.5321L102.363 52.1636V34.9005L116.172 26.7181V60.0484L101.96 68.4554L101.833 68.5285V86.0945L115.713 77.8859C115.903 78.0788 116.159 78.1876 116.427 78.1888C116.655 78.1644 116.868 78.0618 117.033 77.8977C117.197 77.7335 117.302 77.5174 117.332 77.2842C117.361 77.051 117.313 76.8145 117.195 76.6129C117.077 76.4112 116.896 76.2563 116.681 76.1732V60.3461L130.888 51.9391L131.015 51.866V35.2034L144.845 43.3806V59.2077C144.635 59.2729 144.451 59.4056 144.321 59.5862C144.191 59.7668 144.121 59.9857 144.121 60.2103C144.123 60.3003 144.135 60.3897 144.157 60.4766L130.654 68.4659L130.526 68.5442V86.0945L145.12 77.4421L159.454 85.9222L173.793 77.4421L188.132 85.9222L202.211 77.5674V93.0916C202.024 93.138 201.854 93.2378 201.72 93.3793C201.586 93.5208 201.494 93.6983 201.454 93.8912C201.414 94.0842 201.429 94.2847 201.496 94.4696C201.563 94.6545 201.679 94.8162 201.832 94.936C201.985 95.0559 202.168 95.1289 202.359 95.1467C202.551 95.1645 202.744 95.1264 202.915 95.0367C203.086 94.947 203.229 94.8094 203.328 94.6398C203.426 94.4703 203.475 94.2757 203.47 94.0785V94.1516ZM216.556 85.4888L203.185 93.3997C203.057 93.2732 202.899 93.1832 202.726 93.1386V77.3115L202.981 77.1601L216.556 69.1291V85.4888ZM188.387 52.1636L202.211 60.3461V76.7058L188.387 68.5285V52.1636ZM202.721 60.3461L216.556 52.1688V68.5285L202.721 76.7058V60.3461ZM216.556 51.5631L202.721 59.7456V43.3859L216.556 35.2034V51.5631ZM230.915 26.7233V42.4564C230.704 42.517 230.518 42.6458 230.384 42.8236C230.25 43.0013 230.175 43.2187 230.171 43.4433C230.171 43.4799 230.171 43.5112 230.171 43.5425L217.065 51.2655V34.9058L230.915 26.7233ZM202.747 9.75783L216.556 17.9403V34.3L202.747 26.1228V9.75783ZM188.387 35.736C188.559 35.6915 188.716 35.5994 188.841 35.4697L202.211 43.3859V59.7404L188.387 51.5631V35.736ZM159.454 51.4012L145.63 43.2292L151.913 39.5165L159.454 35.052L173.284 43.2292L167.001 46.9471L159.454 51.4012ZM145.375 27.2559C145.545 27.2073 145.701 27.1158 145.828 26.9896L158.945 34.7491L145.375 42.7801V27.2559ZM159.199 34.2948L146.083 26.5353C146.105 26.4465 146.117 26.3554 146.119 26.2638C146.117 26.1739 146.105 26.0845 146.083 25.9975L159.199 18.2379V34.2948ZM159.199 51.866V68.2257L146.083 60.461C146.106 60.374 146.118 60.2846 146.119 60.1946C146.115 59.97 146.04 59.7527 145.906 59.5749C145.772 59.3971 145.586 59.2684 145.375 59.2077V43.6835L159.199 51.866ZM145.375 61.1816C145.547 61.1371 145.704 61.0449 145.828 60.9152L158.945 68.68L145.375 76.7058V61.1816ZM173.538 60.0432L159.709 68.2257V51.8555L173.538 43.6731V60.0432ZM174.048 9.45497L187.877 1.2725V17.6322L174.048 25.8147V9.45497ZM173.538 26.4152V42.7801L159.709 34.6238V18.2379L173.538 26.4152ZM158.945 17.7837L145.828 25.5432C145.702 25.4155 145.546 25.3237 145.375 25.2769V9.75261L158.945 17.7837ZM130.526 1.27772V17.6322L116.681 25.8147V9.4602L130.526 1.27772ZM87.5141 26.7181V43.0778L73.6897 51.2602V34.9005L87.5141 26.7181ZM59.3507 26.7181L73.1802 34.9005V51.2602L66.2654 47.156L59.3507 43.0621V26.7181ZM73.1802 68.2257L66.2654 64.1318L60.0589 60.4766C60.0902 60.3908 60.1107 60.3014 60.1201 60.2103C60.1158 59.985 60.0406 59.7672 59.9056 59.5893C59.7706 59.4114 59.5831 59.2831 59.371 59.2234V43.6835L66.2858 47.7721L73.1802 51.8555V68.2257ZM44.5071 51.2602L30.6776 43.0778V26.7181L44.5071 34.9005V51.2602ZM16.3436 18.2327L30.168 26.4152V42.7801L16.3436 34.6238V18.2327ZM2.71285 42.9786L16.0838 35.052L29.9133 43.2292L23.6304 46.9471L16.0888 51.4117L2.71285 43.5007C2.7586 43.3298 2.7586 43.1495 2.71285 42.9786ZM30.168 60.0589L16.3436 68.2257V51.8555L30.168 43.6731V60.0589ZM45.0167 68.2414V51.8555L58.8411 43.6783V59.2077C58.6247 59.2662 58.433 59.3961 58.2958 59.5773C58.1586 59.7585 58.0834 59.981 58.0818 60.2103C58.0821 60.3007 58.0959 60.3905 58.1226 60.4766L45.0167 68.2414ZM73.1802 85.2016L59.3507 77.0087V61.1816C59.5237 61.1355 59.6818 61.0437 59.8093 60.9152L66.2654 64.7376L73.1802 68.8262V85.2016ZM87.5141 76.7215L73.6897 68.5233V52.1636L87.5141 60.3461V76.7215ZM101.853 51.2602L88.0237 43.0778V26.7181L101.853 34.9005V51.2602ZM102.363 34.2948V17.9142L116.172 9.75783V26.1176L102.363 34.2948ZM130.526 18.2432V34.6238L116.681 42.7801V26.4204L130.526 18.2432ZM102.363 85.1911V68.8314L116.172 60.6489V76.1732C115.96 76.2329 115.772 76.3612 115.637 76.5391C115.502 76.717 115.427 76.9348 115.423 77.1601C115.426 77.2519 115.44 77.3431 115.464 77.4316L102.363 85.1911ZM130.526 51.5631L116.681 59.7456V43.3806L130.526 35.2034V51.5631ZM131.036 18.2379L144.157 25.9975C144.135 26.0845 144.123 26.1739 144.121 26.2638C144.124 26.4893 144.198 26.7078 144.332 26.8866C144.466 27.0655 144.653 27.195 144.865 27.2559V42.7801L131.036 34.6238V18.2379ZM131.036 68.8314L144.412 60.9152C144.536 61.0449 144.693 61.1371 144.865 61.1816V77.0087L131.036 85.1911V68.8314ZM159.454 85.3426L145.63 77.1601L159.199 69.1291L159.454 68.9776L159.709 69.1291L173.284 77.1601L159.454 85.3426ZM174.303 77.1601L188.132 68.9776L201.957 77.1601L188.132 85.3426L174.303 77.1601Z" fill="white"/>
</svg>