<svg width="29" height="29" viewBox="0 0 29 29" fill="none" xmlns="http://www.w3.org/2000/svg">
<path d="M14.5 14.5C17.8367 14.5 20.5416 11.7951 20.5416 8.45835C20.5416 5.12163 17.8367 2.41669 14.5 2.41669C11.1633 2.41669 8.45831 5.12163 8.45831 8.45835C8.45831 11.7951 11.1633 14.5 14.5 14.5Z" stroke="#292D32" stroke-width="1.6" stroke-linecap="round" stroke-linejoin="round"/>
<path d="M4.12042 26.5833C4.12042 21.9071 8.7725 18.125 14.5 18.125C15.66 18.125 16.7838 18.2821 17.835 18.5721" stroke="#292D32" stroke-width="1.6" stroke-linecap="round" stroke-linejoin="round"/>
<path d="M26.5833 21.75C26.5833 22.1366 26.535 22.5112 26.4383 22.8737C26.3295 23.357 26.1362 23.8283 25.8825 24.2391C25.0487 25.6408 23.5141 26.5833 21.75 26.5833C20.5054 26.5833 19.3816 26.112 18.5358 25.3387C18.1733 25.0245 17.8591 24.65 17.6174 24.2391C17.1704 23.5141 16.9166 22.6562 16.9166 21.75C16.9166 20.445 17.4362 19.2487 18.282 18.3787C19.1641 17.4725 20.3966 16.9166 21.75 16.9166C23.1758 16.9166 24.4687 17.5329 25.3387 18.5237C26.112 19.3816 26.5833 20.5175 26.5833 21.75Z" stroke="#292D32" stroke-width="1.6" stroke-miterlimit="10" stroke-linecap="round" stroke-linejoin="round"/>
<path d="M22.9946 20.4692L20.445 23.0188" stroke="#292D32" stroke-width="1.6" stroke-miterlimit="10" stroke-linecap="round" stroke-linejoin="round"/>
<path d="M20.4692 20.4934L23.0309 23.043" stroke="#292D32" stroke-width="1.6" stroke-miterlimit="10" stroke-linecap="round" stroke-linejoin="round"/>
</svg>
