<svg width="27" height="27" viewBox="0 0 27 27" fill="none" xmlns="http://www.w3.org/2000/svg">
<path d="M10.1904 23.4932H16.8081" stroke="white" stroke-width="1.5" stroke-linecap="round" stroke-linejoin="round"/>
<path d="M6.0744 10.9687C6.07303 9.97841 6.26585 8.99768 6.64174 8.083C7.01764 7.16831 7.56917 6.33777 8.26455 5.63924C8.95993 4.94072 9.78541 4.38802 10.6934 4.01301C11.6014 3.638 12.5739 3.4481 13.555 3.45425C17.6486 3.48496 20.9229 6.91946 20.9229 11.063V11.8036C20.9229 15.5417 21.6977 17.7108 22.3802 18.8964C22.4537 19.0231 22.4928 19.1671 22.4936 19.3139C22.4944 19.4607 22.4568 19.6051 22.3846 19.7326C22.3124 19.86 22.2082 19.966 22.0825 20.0399C21.9568 20.1137 21.814 20.1528 21.6686 20.1532H5.32791C5.18245 20.1528 5.03966 20.1137 4.91394 20.0399C4.78822 19.966 4.68403 19.86 4.61187 19.7325C4.53971 19.605 4.50214 19.4606 4.50294 19.3137C4.50375 19.1669 4.5429 19.0229 4.61645 18.8962C5.29923 17.7106 6.0744 15.5415 6.0744 11.8036L6.0744 10.9687Z" stroke="white" stroke-width="1.5" stroke-linecap="round" stroke-linejoin="round"/>
</svg>
