<svg width="23" height="23" viewBox="0 0 23 23" fill="none" xmlns="http://www.w3.org/2000/svg">
<g id="&#240;&#159;&#166;&#134; icon &#34;google&#34;">
<path id="Vector" d="M22.7763 9.24772H21.85V9.2H11.5V13.8H17.9992C17.0511 16.4778 14.5032 18.4 11.5 18.4C7.68948 18.4 4.6 15.3105 4.6 11.5C4.6 7.68948 7.68948 4.6 11.5 4.6C13.2589 4.6 14.8591 5.26355 16.0776 6.34742L19.3303 3.09465C17.2764 1.18047 14.5291 0 11.5 0C5.14912 0 0 5.14912 0 11.5C0 17.8509 5.14912 23 11.5 23C17.8509 23 23 17.8509 23 11.5C23 10.7289 22.9207 9.97625 22.7763 9.24772Z" fill="#FFC107"/>
<path id="Vector_2" d="M1.32617 6.14733L5.1045 8.91825C6.12685 6.3871 8.6028 4.6 11.5002 4.6C13.2591 4.6 14.8594 5.26355 16.0778 6.34742L19.3306 3.09465C17.2767 1.18047 14.5293 0 11.5002 0C7.08307 0 3.25242 2.49377 1.32617 6.14733Z" fill="#FF3D00"/>
<path id="Vector_3" d="M11.4996 23C14.47 23 17.1691 21.8632 19.2098 20.0146L15.6505 17.0028C14.4959 17.8773 13.0607 18.4 11.4996 18.4C8.50844 18.4 5.96867 16.4927 5.01187 13.8311L1.26172 16.7204C3.16497 20.4447 7.03012 23 11.4996 23Z" fill="#4CAF50"/>
<path id="Vector_4" d="M22.7763 9.24792H21.85V9.2002H11.5V13.8002H17.9992C17.5438 15.0865 16.7164 16.1956 15.6492 17.0035C15.6498 17.0029 15.6503 17.0029 15.6509 17.0024L19.2102 20.0142C18.9583 20.2431 23 17.2502 23 11.5002C23 10.7291 22.9206 9.97645 22.7763 9.24792Z" fill="#1976D2"/>
</g>
</svg>
